<svg width="44" height="43" viewBox="0 0 44 43" fill="none" xmlns="http://www.w3.org/2000/svg">
<path fill-rule="evenodd" clip-rule="evenodd" d="M22.0182 0C9.84271 0 0 9.85413 0 22.045C0 31.7899 6.30656 40.0387 15.0554 42.9582C16.1493 43.1776 16.5499 42.4838 16.5499 41.9002C16.5499 41.3891 16.5139 39.6373 16.5139 37.8121C10.3889 39.1263 9.11348 35.1842 9.11348 35.1842C8.12917 32.6292 6.67072 31.9726 6.67072 31.9726C4.66603 30.6221 6.81675 30.6221 6.81675 30.6221C9.04047 30.7682 10.2073 32.885 10.2073 32.885C12.1755 36.2426 15.347 35.2939 16.6229 34.7098C16.805 33.2863 17.3887 32.3009 18.0084 31.7536C13.1233 31.2425 7.98359 29.3447 7.98359 20.8769C7.98359 18.468 8.85794 16.4972 10.2434 14.9644C10.0248 14.417 9.25906 12.1537 10.4624 9.12447C10.4624 9.12447 12.3215 8.54039 16.5134 11.3873C18.3081 10.9048 20.159 10.6593 22.0182 10.6572C23.8773 10.6572 25.7725 10.913 27.5225 11.3873C31.7149 8.54039 33.574 9.12447 33.574 9.12447C34.7774 12.1537 34.0112 14.417 33.7926 14.9644C35.2145 16.4972 36.0528 18.468 36.0528 20.8769C36.0528 29.3447 30.9131 31.2058 25.9915 31.7536C26.7938 32.4469 27.486 33.7607 27.486 35.8412C27.486 38.7975 27.45 41.1701 27.45 41.8997C27.45 42.4838 27.8511 43.1776 28.9445 42.9586C37.6933 40.0382 43.9999 31.7899 43.9999 22.045C44.036 9.85413 34.1572 0 22.0182 0Z" fill="white"/>
</svg>
