<svg width="44" height="44" viewBox="0 0 44 44" fill="none" xmlns="http://www.w3.org/2000/svg">
<path d="M40.743 0H3.24844C1.45234 0 0 1.41797 0 3.17109V40.8203C0 42.5734 1.45234 44 3.24844 44H40.743C42.5391 44 44 42.5734 44 40.8289V3.17109C44 1.41797 42.5391 0 40.743 0ZM13.0539 37.4945H6.52266V16.4914H13.0539V37.4945ZM9.78828 13.6297C7.69141 13.6297 5.99844 11.9367 5.99844 9.84844C5.99844 7.76016 7.69141 6.06719 9.78828 6.06719C11.8766 6.06719 13.5695 7.76016 13.5695 9.84844C13.5695 11.9281 11.8766 13.6297 9.78828 13.6297ZM37.4945 37.4945H30.9719V27.2852C30.9719 24.8531 30.9289 21.7164 27.5773 21.7164C24.1828 21.7164 23.6672 24.3719 23.6672 27.1133V37.4945H17.1531V16.4914H23.4094V19.3617H23.4953C24.3633 17.7117 26.4945 15.9672 29.6656 15.9672C36.2742 15.9672 37.4945 20.3156 37.4945 25.9703V37.4945Z" fill="white"/>
</svg>
